<mxfile host="Electron" agent="Mozilla/5.0 (Windows NT 10.0; Win64; x64) AppleWebKit/537.36 (KHTML, like Gecko) draw.io/26.0.9 Chrome/128.0.6613.186 Electron/32.2.5 Safari/537.36" version="26.0.9">
  <diagram name="Page-1" id="y82j7J4YRZT-S5vkuVCB">
    <mxGraphModel dx="1245" dy="1838" grid="1" gridSize="10" guides="1" tooltips="1" connect="1" arrows="1" fold="1" page="1" pageScale="1" pageWidth="850" pageHeight="1100" math="0" shadow="0">
      <root>
        <mxCell id="0" />
        <mxCell id="1" parent="0" />
        <mxCell id="c4IrTYqVFtwu_mxrQR1T-28" style="rounded=0;orthogonalLoop=1;jettySize=auto;html=1;exitX=1;exitY=0.5;exitDx=0;exitDy=0;" parent="1" source="c4IrTYqVFtwu_mxrQR1T-1" target="c4IrTYqVFtwu_mxrQR1T-10" edge="1">
          <mxGeometry relative="1" as="geometry" />
        </mxCell>
        <mxCell id="c4IrTYqVFtwu_mxrQR1T-29" value="event information" style="edgeLabel;html=1;align=center;verticalAlign=middle;resizable=0;points=[];" parent="c4IrTYqVFtwu_mxrQR1T-28" vertex="1" connectable="0">
          <mxGeometry x="0.3543" y="3" relative="1" as="geometry">
            <mxPoint x="17" as="offset" />
          </mxGeometry>
        </mxCell>
        <mxCell id="c4IrTYqVFtwu_mxrQR1T-30" style="rounded=0;orthogonalLoop=1;jettySize=auto;html=1;exitX=0.993;exitY=0.361;exitDx=0;exitDy=0;entryX=0;entryY=0.75;entryDx=0;entryDy=0;startArrow=none;startFill=0;exitPerimeter=0;" parent="1" source="c4IrTYqVFtwu_mxrQR1T-1" target="c4IrTYqVFtwu_mxrQR1T-13" edge="1">
          <mxGeometry relative="1" as="geometry" />
        </mxCell>
        <mxCell id="c4IrTYqVFtwu_mxrQR1T-40" value="payment" style="edgeLabel;html=1;align=center;verticalAlign=middle;resizable=0;points=[];" parent="c4IrTYqVFtwu_mxrQR1T-30" vertex="1" connectable="0">
          <mxGeometry x="0.5349" y="2" relative="1" as="geometry">
            <mxPoint as="offset" />
          </mxGeometry>
        </mxCell>
        <mxCell id="c4IrTYqVFtwu_mxrQR1T-35" style="rounded=0;orthogonalLoop=1;jettySize=auto;html=1;exitX=0.824;exitY=0.908;exitDx=0;exitDy=0;entryX=0.032;entryY=0.392;entryDx=0;entryDy=0;startArrow=classic;startFill=1;entryPerimeter=0;exitPerimeter=0;endArrow=none;" parent="1" source="c4IrTYqVFtwu_mxrQR1T-1" target="c4IrTYqVFtwu_mxrQR1T-11" edge="1">
          <mxGeometry relative="1" as="geometry">
            <mxPoint x="549.9996103067894" y="489.99961030678935" as="sourcePoint" />
            <mxPoint x="736.36" y="666.36" as="targetPoint" />
          </mxGeometry>
        </mxCell>
        <mxCell id="c4IrTYqVFtwu_mxrQR1T-37" value="reports" style="edgeLabel;html=1;align=center;verticalAlign=middle;resizable=0;points=[];" parent="c4IrTYqVFtwu_mxrQR1T-35" vertex="1" connectable="0">
          <mxGeometry x="-0.627" y="5" relative="1" as="geometry">
            <mxPoint x="-1" as="offset" />
          </mxGeometry>
        </mxCell>
        <mxCell id="c4IrTYqVFtwu_mxrQR1T-1" value="&lt;font style=&quot;font-size: 18px;&quot;&gt;SEES&lt;/font&gt;" style="ellipse;whiteSpace=wrap;html=1;aspect=fixed;" parent="1" vertex="1">
          <mxGeometry x="410" y="310" width="180" height="180" as="geometry" />
        </mxCell>
        <mxCell id="c4IrTYqVFtwu_mxrQR1T-18" style="rounded=0;orthogonalLoop=1;jettySize=auto;html=1;entryX=0;entryY=0;entryDx=0;entryDy=0;startArrow=none;startFill=0;" parent="1" source="c4IrTYqVFtwu_mxrQR1T-2" target="c4IrTYqVFtwu_mxrQR1T-1" edge="1">
          <mxGeometry relative="1" as="geometry" />
        </mxCell>
        <mxCell id="c4IrTYqVFtwu_mxrQR1T-20" value="event plan and promotion" style="edgeLabel;html=1;align=center;verticalAlign=middle;resizable=0;points=[];" parent="c4IrTYqVFtwu_mxrQR1T-18" vertex="1" connectable="0">
          <mxGeometry x="0.5931" y="-1" relative="1" as="geometry">
            <mxPoint as="offset" />
          </mxGeometry>
        </mxCell>
        <mxCell id="c4IrTYqVFtwu_mxrQR1T-2" value="Organizers" style="rounded=0;whiteSpace=wrap;html=1;" parent="1" vertex="1">
          <mxGeometry x="90" y="80" width="120" height="60" as="geometry" />
        </mxCell>
        <mxCell id="c4IrTYqVFtwu_mxrQR1T-4" value="User Database" style="rounded=0;whiteSpace=wrap;html=1;" parent="1" vertex="1">
          <mxGeometry x="310" y="-50" width="120" height="60" as="geometry" />
        </mxCell>
        <mxCell id="c4IrTYqVFtwu_mxrQR1T-21" style="rounded=0;orthogonalLoop=1;jettySize=auto;html=1;entryX=0;entryY=0.5;entryDx=0;entryDy=0;endArrow=classic;endFill=1;startArrow=none;startFill=0;" parent="1" source="c4IrTYqVFtwu_mxrQR1T-5" target="c4IrTYqVFtwu_mxrQR1T-1" edge="1">
          <mxGeometry relative="1" as="geometry" />
        </mxCell>
        <mxCell id="c4IrTYqVFtwu_mxrQR1T-22" value="participation" style="edgeLabel;html=1;align=center;verticalAlign=middle;resizable=0;points=[];" parent="c4IrTYqVFtwu_mxrQR1T-21" vertex="1" connectable="0">
          <mxGeometry x="0.5571" y="6" relative="1" as="geometry">
            <mxPoint as="offset" />
          </mxGeometry>
        </mxCell>
        <mxCell id="c4IrTYqVFtwu_mxrQR1T-5" value="Attendees" style="rounded=0;whiteSpace=wrap;html=1;" parent="1" vertex="1">
          <mxGeometry x="10" y="280" width="120" height="60" as="geometry" />
        </mxCell>
        <mxCell id="c4IrTYqVFtwu_mxrQR1T-6" value="Administrative users" style="rounded=0;whiteSpace=wrap;html=1;" parent="1" vertex="1">
          <mxGeometry x="20" y="480" width="120" height="60" as="geometry" />
        </mxCell>
        <mxCell id="c4IrTYqVFtwu_mxrQR1T-26" style="rounded=0;orthogonalLoop=1;jettySize=auto;html=1;exitX=1;exitY=0.5;exitDx=0;exitDy=0;entryX=0;entryY=1;entryDx=0;entryDy=0;startArrow=classic;startFill=1;endArrow=none;endFill=0;" parent="1" source="c4IrTYqVFtwu_mxrQR1T-7" target="c4IrTYqVFtwu_mxrQR1T-1" edge="1">
          <mxGeometry relative="1" as="geometry" />
        </mxCell>
        <mxCell id="c4IrTYqVFtwu_mxrQR1T-31" value="updates and analytics" style="edgeLabel;html=1;align=center;verticalAlign=middle;resizable=0;points=[];" parent="c4IrTYqVFtwu_mxrQR1T-26" vertex="1" connectable="0">
          <mxGeometry x="-0.737" y="-2" relative="1" as="geometry">
            <mxPoint x="37" y="-24" as="offset" />
          </mxGeometry>
        </mxCell>
        <mxCell id="c4IrTYqVFtwu_mxrQR1T-7" value="Stakeholders" style="rounded=0;whiteSpace=wrap;html=1;" parent="1" vertex="1">
          <mxGeometry x="130" y="650" width="120" height="60" as="geometry" />
        </mxCell>
        <mxCell id="c4IrTYqVFtwu_mxrQR1T-8" value="Schedueling API" style="rounded=0;whiteSpace=wrap;html=1;" parent="1" vertex="1">
          <mxGeometry x="560" y="-20" width="120" height="60" as="geometry" />
        </mxCell>
        <mxCell id="c4IrTYqVFtwu_mxrQR1T-10" value="Calendar" style="rounded=0;whiteSpace=wrap;html=1;" parent="1" vertex="1">
          <mxGeometry x="830" y="510" width="120" height="60" as="geometry" />
        </mxCell>
        <mxCell id="c4IrTYqVFtwu_mxrQR1T-11" value="Email Server" style="rounded=0;whiteSpace=wrap;html=1;" parent="1" vertex="1">
          <mxGeometry x="750" y="640" width="120" height="60" as="geometry" />
        </mxCell>
        <mxCell id="c4IrTYqVFtwu_mxrQR1T-13" value="Payment" style="rounded=0;whiteSpace=wrap;html=1;" parent="1" vertex="1">
          <mxGeometry x="910" y="290" width="120" height="60" as="geometry" />
        </mxCell>
        <mxCell id="c4IrTYqVFtwu_mxrQR1T-14" value="Event Database" style="rounded=0;whiteSpace=wrap;html=1;" parent="1" vertex="1">
          <mxGeometry x="430" y="700" width="120" height="60" as="geometry" />
        </mxCell>
        <mxCell id="c4IrTYqVFtwu_mxrQR1T-23" style="rounded=0;orthogonalLoop=1;jettySize=auto;html=1;exitX=1;exitY=0.5;exitDx=0;exitDy=0;entryX=0.067;entryY=0.746;entryDx=0;entryDy=0;entryPerimeter=0;" parent="1" source="c4IrTYqVFtwu_mxrQR1T-6" target="c4IrTYqVFtwu_mxrQR1T-1" edge="1">
          <mxGeometry relative="1" as="geometry" />
        </mxCell>
        <mxCell id="c4IrTYqVFtwu_mxrQR1T-24" value="management" style="edgeLabel;html=1;align=center;verticalAlign=middle;resizable=0;points=[];" parent="c4IrTYqVFtwu_mxrQR1T-23" vertex="1" connectable="0">
          <mxGeometry x="0.4916" y="-3" relative="1" as="geometry">
            <mxPoint as="offset" />
          </mxGeometry>
        </mxCell>
        <mxCell id="c4IrTYqVFtwu_mxrQR1T-32" style="rounded=0;orthogonalLoop=1;jettySize=auto;html=1;entryX=0.438;entryY=1.011;entryDx=0;entryDy=0;entryPerimeter=0;startArrow=classic;startFill=1;endArrow=none;" parent="1" source="c4IrTYqVFtwu_mxrQR1T-14" target="c4IrTYqVFtwu_mxrQR1T-1" edge="1">
          <mxGeometry relative="1" as="geometry" />
        </mxCell>
        <mxCell id="lmGV5u418YhYosMbD0Fr-17" value="updates" style="edgeLabel;html=1;align=center;verticalAlign=middle;resizable=0;points=[];" vertex="1" connectable="0" parent="c4IrTYqVFtwu_mxrQR1T-32">
          <mxGeometry x="-0.5142" y="4" relative="1" as="geometry">
            <mxPoint as="offset" />
          </mxGeometry>
        </mxCell>
        <mxCell id="c4IrTYqVFtwu_mxrQR1T-33" style="rounded=0;orthogonalLoop=1;jettySize=auto;html=1;exitX=0.5;exitY=1;exitDx=0;exitDy=0;startArrow=none;startFill=0;entryX=0.414;entryY=0.022;entryDx=0;entryDy=0;entryPerimeter=0;" parent="1" source="c4IrTYqVFtwu_mxrQR1T-4" target="c4IrTYqVFtwu_mxrQR1T-1" edge="1">
          <mxGeometry relative="1" as="geometry">
            <mxPoint x="480" y="309" as="targetPoint" />
          </mxGeometry>
        </mxCell>
        <mxCell id="lmGV5u418YhYosMbD0Fr-8" value="user Information" style="edgeLabel;html=1;align=center;verticalAlign=middle;resizable=0;points=[];" vertex="1" connectable="0" parent="c4IrTYqVFtwu_mxrQR1T-33">
          <mxGeometry x="0.7617" y="-2" relative="1" as="geometry">
            <mxPoint x="-6" y="-21" as="offset" />
          </mxGeometry>
        </mxCell>
        <mxCell id="c4IrTYqVFtwu_mxrQR1T-34" style="rounded=0;orthogonalLoop=1;jettySize=auto;html=1;exitX=0.16;exitY=0.996;exitDx=0;exitDy=0;startArrow=none;startFill=0;exitPerimeter=0;entryX=0.664;entryY=0.047;entryDx=0;entryDy=0;entryPerimeter=0;" parent="1" source="c4IrTYqVFtwu_mxrQR1T-8" target="c4IrTYqVFtwu_mxrQR1T-1" edge="1">
          <mxGeometry relative="1" as="geometry" />
        </mxCell>
        <mxCell id="c4IrTYqVFtwu_mxrQR1T-42" value="agenda" style="edgeLabel;html=1;align=center;verticalAlign=middle;resizable=0;points=[];" parent="c4IrTYqVFtwu_mxrQR1T-34" vertex="1" connectable="0">
          <mxGeometry x="0.4787" y="-2" relative="1" as="geometry">
            <mxPoint as="offset" />
          </mxGeometry>
        </mxCell>
        <mxCell id="c4IrTYqVFtwu_mxrQR1T-43" value="Chatroom API" style="rounded=0;whiteSpace=wrap;html=1;" parent="1" vertex="1">
          <mxGeometry x="840" y="180" width="120" height="60" as="geometry" />
        </mxCell>
        <mxCell id="c4IrTYqVFtwu_mxrQR1T-44" style="rounded=0;orthogonalLoop=1;jettySize=auto;html=1;exitX=0;exitY=0.5;exitDx=0;exitDy=0;entryX=0.883;entryY=0.2;entryDx=0;entryDy=0;entryPerimeter=0;startArrow=classic;startFill=1;endArrow=none;" parent="1" source="c4IrTYqVFtwu_mxrQR1T-43" target="c4IrTYqVFtwu_mxrQR1T-1" edge="1">
          <mxGeometry relative="1" as="geometry" />
        </mxCell>
        <mxCell id="c4IrTYqVFtwu_mxrQR1T-46" value="chatroom" style="edgeLabel;html=1;align=center;verticalAlign=middle;resizable=0;points=[];" parent="c4IrTYqVFtwu_mxrQR1T-44" vertex="1" connectable="0">
          <mxGeometry x="0.0717" y="1" relative="1" as="geometry">
            <mxPoint x="69" y="-39" as="offset" />
          </mxGeometry>
        </mxCell>
        <mxCell id="c4IrTYqVFtwu_mxrQR1T-47" value="Polling API" style="rounded=0;whiteSpace=wrap;html=1;" parent="1" vertex="1">
          <mxGeometry x="740" y="50" width="120" height="60" as="geometry" />
        </mxCell>
        <mxCell id="c4IrTYqVFtwu_mxrQR1T-48" style="rounded=0;orthogonalLoop=1;jettySize=auto;html=1;exitX=0;exitY=1;exitDx=0;exitDy=0;entryX=0.823;entryY=0.105;entryDx=0;entryDy=0;entryPerimeter=0;startArrow=classic;startFill=1;endArrow=none;" parent="1" source="c4IrTYqVFtwu_mxrQR1T-47" target="c4IrTYqVFtwu_mxrQR1T-1" edge="1">
          <mxGeometry relative="1" as="geometry" />
        </mxCell>
        <mxCell id="c4IrTYqVFtwu_mxrQR1T-49" value="live polling" style="edgeLabel;html=1;align=center;verticalAlign=middle;resizable=0;points=[];" parent="c4IrTYqVFtwu_mxrQR1T-48" vertex="1" connectable="0">
          <mxGeometry x="0.0029" y="2" relative="1" as="geometry">
            <mxPoint x="35" y="-51" as="offset" />
          </mxGeometry>
        </mxCell>
        <mxCell id="lmGV5u418YhYosMbD0Fr-1" style="rounded=0;orthogonalLoop=1;jettySize=auto;html=1;startArrow=classic;startFill=1;endArrow=none;exitX=1;exitY=1;exitDx=0;exitDy=0;entryX=0.188;entryY=0.107;entryDx=0;entryDy=0;entryPerimeter=0;" edge="1" parent="1" source="c4IrTYqVFtwu_mxrQR1T-2" target="c4IrTYqVFtwu_mxrQR1T-1">
          <mxGeometry relative="1" as="geometry">
            <mxPoint x="290" y="180" as="sourcePoint" />
            <mxPoint x="440" y="330" as="targetPoint" />
          </mxGeometry>
        </mxCell>
        <mxCell id="lmGV5u418YhYosMbD0Fr-3" value="analytics" style="edgeLabel;html=1;align=center;verticalAlign=middle;resizable=0;points=[];" vertex="1" connectable="0" parent="lmGV5u418YhYosMbD0Fr-1">
          <mxGeometry x="-0.6472" y="3" relative="1" as="geometry">
            <mxPoint as="offset" />
          </mxGeometry>
        </mxCell>
        <mxCell id="lmGV5u418YhYosMbD0Fr-4" style="rounded=0;orthogonalLoop=1;jettySize=auto;html=1;exitX=0.993;exitY=0.361;exitDx=0;exitDy=0;entryX=0;entryY=1;entryDx=0;entryDy=0;startArrow=classic;startFill=1;exitPerimeter=0;endArrow=none;" edge="1" parent="1" target="c4IrTYqVFtwu_mxrQR1T-13">
          <mxGeometry relative="1" as="geometry">
            <mxPoint x="589" y="390" as="sourcePoint" />
            <mxPoint x="760" y="360" as="targetPoint" />
          </mxGeometry>
        </mxCell>
        <mxCell id="lmGV5u418YhYosMbD0Fr-5" value="confirmation" style="edgeLabel;html=1;align=center;verticalAlign=middle;resizable=0;points=[];" vertex="1" connectable="0" parent="lmGV5u418YhYosMbD0Fr-4">
          <mxGeometry x="-0.5789" y="3" relative="1" as="geometry">
            <mxPoint as="offset" />
          </mxGeometry>
        </mxCell>
        <mxCell id="lmGV5u418YhYosMbD0Fr-7" style="rounded=0;orthogonalLoop=1;jettySize=auto;html=1;startArrow=classic;startFill=1;endArrow=none;" edge="1" parent="1" source="c4IrTYqVFtwu_mxrQR1T-4">
          <mxGeometry relative="1" as="geometry">
            <mxPoint x="410" y="140" as="sourcePoint" />
            <mxPoint x="500" y="309" as="targetPoint" />
          </mxGeometry>
        </mxCell>
        <mxCell id="lmGV5u418YhYosMbD0Fr-9" value="updates" style="edgeLabel;html=1;align=center;verticalAlign=middle;resizable=0;points=[];" vertex="1" connectable="0" parent="lmGV5u418YhYosMbD0Fr-7">
          <mxGeometry x="-0.729" y="-2" relative="1" as="geometry">
            <mxPoint as="offset" />
          </mxGeometry>
        </mxCell>
        <mxCell id="lmGV5u418YhYosMbD0Fr-10" style="rounded=0;orthogonalLoop=1;jettySize=auto;html=1;entryX=0;entryY=0.5;entryDx=0;entryDy=0;endArrow=none;endFill=1;startArrow=classic;startFill=1;exitX=1;exitY=0.5;exitDx=0;exitDy=0;" edge="1" parent="1" source="c4IrTYqVFtwu_mxrQR1T-5">
          <mxGeometry relative="1" as="geometry">
            <mxPoint x="210" y="284" as="sourcePoint" />
            <mxPoint x="410" y="376" as="targetPoint" />
          </mxGeometry>
        </mxCell>
        <mxCell id="lmGV5u418YhYosMbD0Fr-12" value="event Information and networking" style="edgeLabel;html=1;align=center;verticalAlign=middle;resizable=0;points=[];" vertex="1" connectable="0" parent="lmGV5u418YhYosMbD0Fr-10">
          <mxGeometry x="-0.7888" y="-2" relative="1" as="geometry">
            <mxPoint x="17" y="7" as="offset" />
          </mxGeometry>
        </mxCell>
        <mxCell id="lmGV5u418YhYosMbD0Fr-13" style="rounded=0;orthogonalLoop=1;jettySize=auto;html=1;entryX=0.084;entryY=0.001;entryDx=0;entryDy=0;startArrow=none;startFill=0;entryPerimeter=0;" edge="1" parent="1" source="c4IrTYqVFtwu_mxrQR1T-1" target="c4IrTYqVFtwu_mxrQR1T-11">
          <mxGeometry relative="1" as="geometry">
            <mxPoint x="574" y="474" as="sourcePoint" />
            <mxPoint x="730" y="630" as="targetPoint" />
          </mxGeometry>
        </mxCell>
        <mxCell id="lmGV5u418YhYosMbD0Fr-14" value="email campains" style="edgeLabel;html=1;align=center;verticalAlign=middle;resizable=0;points=[];" vertex="1" connectable="0" parent="lmGV5u418YhYosMbD0Fr-13">
          <mxGeometry x="0.6171" y="-2" relative="1" as="geometry">
            <mxPoint as="offset" />
          </mxGeometry>
        </mxCell>
        <mxCell id="lmGV5u418YhYosMbD0Fr-16" style="rounded=0;orthogonalLoop=1;jettySize=auto;html=1;entryX=0.438;entryY=1.011;entryDx=0;entryDy=0;entryPerimeter=0;startArrow=none;startFill=0;" edge="1" parent="1">
          <mxGeometry relative="1" as="geometry">
            <mxPoint x="511" y="700" as="sourcePoint" />
            <mxPoint x="510" y="492" as="targetPoint" />
          </mxGeometry>
        </mxCell>
        <mxCell id="lmGV5u418YhYosMbD0Fr-18" value="event Information" style="edgeLabel;html=1;align=center;verticalAlign=middle;resizable=0;points=[];" vertex="1" connectable="0" parent="lmGV5u418YhYosMbD0Fr-16">
          <mxGeometry x="0.4856" y="-1" relative="1" as="geometry">
            <mxPoint y="1" as="offset" />
          </mxGeometry>
        </mxCell>
        <mxCell id="lmGV5u418YhYosMbD0Fr-20" style="rounded=0;orthogonalLoop=1;jettySize=auto;html=1;entryX=0.754;entryY=0.077;entryDx=0;entryDy=0;entryPerimeter=0;startArrow=classic;startFill=1;endArrow=none;exitX=0.25;exitY=1;exitDx=0;exitDy=0;" edge="1" parent="1" source="c4IrTYqVFtwu_mxrQR1T-8" target="c4IrTYqVFtwu_mxrQR1T-1">
          <mxGeometry relative="1" as="geometry">
            <mxPoint x="582" y="80" as="sourcePoint" />
            <mxPoint x="560" y="324" as="targetPoint" />
          </mxGeometry>
        </mxCell>
        <mxCell id="lmGV5u418YhYosMbD0Fr-21" value="schedule information" style="edgeLabel;html=1;align=center;verticalAlign=middle;resizable=0;points=[];" vertex="1" connectable="0" parent="lmGV5u418YhYosMbD0Fr-20">
          <mxGeometry x="-0.6323" relative="1" as="geometry">
            <mxPoint y="-1" as="offset" />
          </mxGeometry>
        </mxCell>
      </root>
    </mxGraphModel>
  </diagram>
</mxfile>
